<?xml version="1.0" encoding="UTF-8"?>
<svg id="Layer_2" data-name="Layer 2" xmlns="http://www.w3.org/2000/svg" viewBox="0 0 87.55 87.55">
  <defs>
    <style>
      .cls-1 {
        fill: #888fa1;
      }
    </style>
  </defs>
  <g id="Layer_1-2" data-name="Layer 1-2">
    <g>
      <path class="cls-1" d="M43.77,24.97C19.61,24.97,0,44.57,0,68.74c0,6.74,1.53,13.11,4.24,18.81h28.34c-6.41-3.81-10.7-10.8-10.7-18.81,0-12.1,9.81-21.88,21.89-21.88s21.89,9.79,21.89,21.88c0,8.01-4.28,15-10.7,18.81h28.34c2.71-5.71,4.24-12.08,4.24-18.81,0-24.17-19.61-43.77-43.77-43.77"/>
      <path class="cls-1" d="M6.05,0c7.6,12.94,21.65,21.61,37.73,21.61S73.91,12.94,81.5,0H6.05Z"/>
    </g>
  </g>
</svg>