<?xml version="1.0" encoding="UTF-8"?>
<svg id="Layer_2" data-name="Layer 2" xmlns="http://www.w3.org/2000/svg" viewBox="0 0 1920 1080">
  <defs>
    <style>
      .cls-1 {
        fill: #888fa1;
      }
    </style>
  </defs>
  <g id="Layer_1-2" data-name="Layer 1">
    <path class="cls-1" d="M0,0v1080h1920V0H0ZM1128.42,375.6c-33.88,57.76-96.6,96.46-168.38,96.46s-134.49-38.7-168.41-96.46h336.79ZM1136.45,766.4h-126.5c28.66-17,47.76-48.21,47.76-83.96,0-53.97-43.79-97.67-97.71-97.67s-97.71,43.66-97.71,97.67c0,35.75,19.15,66.96,47.76,83.96h-126.5c-12.1-25.44-18.93-53.88-18.93-83.96,0-107.89,87.53-195.38,195.38-195.38s195.38,87.49,195.38,195.38c0,30.04-6.83,58.47-18.93,83.96Z"/>
  </g>
</svg>